<?xml version="1.0" encoding="iso-8859-1"?>
<!-- Generator: Adobe Illustrator 18.1.1, SVG Export Plug-In . SVG Version: 6.00 Build 0)  -->
<svg version="1.1" id="Capa_1" xmlns="http://www.w3.org/2000/svg" xmlns:xlink="http://www.w3.org/1999/xlink" x="0px" y="0px"
	 viewBox="0 0 47.675 47.675" style="enable-background:new 0 0 47.675 47.675;" xml:space="preserve">
<g>
	<path style="fill:#EF5629;" d="M47.025,30.657c0.037-1.269-0.669-2.697-2.252-3.475c0.952-0.293,1.724-0.866,2.247-1.689
		c0.798-1.254,0.875-2.957,0.191-4.237c-0.567-1.065-1.587-1.696-2.801-1.744c-5.776-1.728-9.087-2.05-11.719-2.081
		c0.207-0.72,0.743-1.601,1.306-2.519c0.826-1.345,1.762-2.87,2.076-4.446c0.535-1.786,0.646-5.498-0.814-7.795
		c-0.626-0.985-1.456-1.56-2.467-1.709c-0.362-0.05-0.845,0.128-1.235,0.465c-0.504,0.433-0.782,1.055-0.784,1.752
		c-0.022,7.77-8.397,11.52-10.963,12.484c-1.519,0.57-3.946,3.054-4.552,6.233c-0.088,0.457-1.719,0.532-3.543,0.476
		c0.539-0.751,0.936-1.15,0.936-1.15l-8.184-0.446c-4.671,4.21-4.648,8.926-4.362,13.222c0.354,5.314,4.362,9.247,4.362,9.247
		l8.184,0.148c-0.283-0.432-0.547-0.859-0.794-1.282c0.885,0.063,1.655,0.235,2.348,0.617c0.465,0.257,0.892,0.757,1.343,1.286
		c0.928,1.089,2.082,2.442,4.294,2.531c1.266,0,2.875,0.035,4.647,0.074c2.15,0.048,4.578,0.102,6.924,0.102
		c2.128,0,4.189-0.044,5.917-0.177c0.139-0.011,0.338-0.017,0.582-0.023c1.93-0.056,6.448-0.186,6.533-3.28
		c0.028-1.012-0.444-2.023-1.205-2.715c2.003-0.33,2.988-1.74,3.072-3.175c0.077-1.304-0.594-2.699-1.875-3.404
		C46.164,33.349,46.987,31.975,47.025,30.657z M41.804,19.558c-0.37,0.017-0.741,0.033-1.108,0.052
		c-2.021,0.106-4.111,0.217-5.808-0.097c-1.243-0.229-1.987-0.601-2.211-1.103c-0.031-0.071-0.043-0.15-0.057-0.229
		C34.825,18.203,37.514,18.432,41.804,19.558z M3.871,25.091c0-1.068,0.866-1.934,1.934-1.934s1.934,0.866,1.934,1.934
		c0,1.068-0.866,1.934-1.934,1.934S3.871,26.159,3.871,25.091z M42.833,33.495c-0.147,0.009-0.271,0.102-0.324,0.231
		c-0.045-0.46-0.129-0.91-0.223-1.328c-0.047-0.202-0.248-0.329-0.448-0.284c-0.202,0.046-0.329,0.246-0.284,0.448
		c0.195,0.865,0.379,1.861,0.098,2.746c-0.062,0.197,0.047,0.408,0.244,0.471c0.037,0.012,0.076,0.018,0.113,0.018
		c0.159,0,0.307-0.102,0.357-0.262c0.156-0.491,0.189-0.993,0.167-1.486c0.059,0.106,0.164,0.185,0.293,0.195
		c1.887,0.146,2.818,1.688,2.737,3.064c-0.073,1.232-1.047,2.653-3.486,2.536c-0.051-0.002-0.082,0.025-0.123,0.038
		c-0.002-0.038-0.003-0.076-0.005-0.113c-0.018-0.324-0.034-0.659-0.006-0.987c0.018-0.206-0.136-0.388-0.342-0.406
		c-0.209-0.023-0.388,0.136-0.406,0.342c-0.032,0.379-0.014,0.741,0.005,1.091c0.03,0.593,0.057,1.104-0.172,1.532
		c-0.098,0.183-0.028,0.41,0.154,0.508c0.057,0.03,0.117,0.044,0.177,0.044c0.134,0,0.264-0.072,0.331-0.198
		c0.19-0.356,0.252-0.731,0.269-1.109c0.895,0.377,1.771,1.392,1.735,2.636c-0.064,2.386-4.087,2.502-5.805,2.551
		c-0.26,0.008-0.472,0.014-0.618,0.025c-3.596,0.276-8.681,0.163-12.767,0.074c-1.771-0.039-3.38-0.075-4.633-0.075
		c-0.005,0-0.011,0-0.016,0c-1.869-0.074-2.819-1.189-3.738-2.268c-0.498-0.583-0.967-1.134-1.552-1.456
		c-0.938-0.517-1.956-0.695-3.139-0.731c-4.734-8.699-2.12-15.2-0.211-18.229c2.778,0.121,4.587-0.075,4.777-1.075
		c0.547-2.871,2.759-5.176,4.079-5.671c2.68-1.007,11.426-4.934,11.45-13.184c0.002-0.61,0.285-0.981,0.522-1.185
		c0.294-0.252,0.562-0.308,0.637-0.292c0.786,0.116,1.44,0.577,1.944,1.37c1.277,2.009,1.244,5.459,0.72,7.211
		c-0.296,1.479-1.194,2.943-1.987,4.235c-1.006,1.638-1.874,3.053-1.366,4.195c0.34,0.763,1.217,1.251,2.76,1.535
		c1.784,0.33,3.92,0.217,5.984,0.108c1.208-0.063,2.449-0.132,3.597-0.102c0.003,0,0.007,0.001,0.01,0.001l0,0
		c0.971,0.026,1.754,0.505,2.206,1.35c0.56,1.049,0.494,2.449-0.163,3.481c-0.693,1.088-1.957,1.635-3.512,1.56
		c-0.2-0.028-0.377,0.141-0.394,0.342c-0.017,0.202,0.129,0.381,0.33,0.404c2.436,0.287,3.503,1.88,3.463,3.239
		C46.237,31.959,45.158,33.358,42.833,33.495z M42.2,25.657c0.184,0.968,0.373,1.97,0.002,3.015c-0.055,0.154-0.199,0.25-0.354,0.25
		c-0.042,0-0.084-0.007-0.125-0.021c-0.195-0.069-0.298-0.284-0.229-0.479c0.304-0.854,0.141-1.715-0.031-2.626
		c-0.039-0.203,0.095-0.399,0.299-0.438C41.971,25.319,42.16,25.455,42.2,25.657z"/>
</g>
<g>
</g>
<g>
</g>
<g>
</g>
<g>
</g>
<g>
</g>
<g>
</g>
<g>
</g>
<g>
</g>
<g>
</g>
<g>
</g>
<g>
</g>
<g>
</g>
<g>
</g>
<g>
</g>
<g>
</g>
</svg>
